<svg version="1.2" xmlns="http://www.w3.org/2000/svg" viewBox="0 0 1200 193" width="1200" height="193">
	<title>efortis-logo</title>
	<style>
		.s0 { fill: #0191fc } 
		.s1 { fill: #10193b } 
		.s2 { fill: #08f6da } 
	</style>
	<g id="Background">
		<path id="Path 0" class="s0" d="m47.5 51l-48 48 92.4 92.5c5.5-5.4 7-7.3 6.9-7.7-0.2-0.4-19-19.5-41.9-42.5l-41.7-41.8 80.3-80.5 60 59.9-6 6.1 8 8 13.7-14.5-75.7-75.5z"/>
		<path id="Path 1" class="s1" d="m1150.5 44c-32.8 0.5-37.6 0.7-42 2.4-2.8 1-6.7 2.9-8.8 4.2-2 1.3-4.8 3.9-6.1 5.7-1.4 1.7-3.2 5.2-4.1 7.7-0.8 2.5-1.8 7.7-2.1 11.5-0.4 4-0.2 9.7 0.5 13.5 0.7 3.6 2.2 8.3 3.4 10.4 1.2 2.2 4.2 5.5 6.7 7.4 2.5 1.8 6.8 4.1 9.5 4.9 3.7 1.2 11.5 1.8 30.5 2.3 20.8 0.5 26.2 0.9 29.3 2.3 2.5 1.2 4.2 2.8 5.2 5.2 0.8 1.9 1.5 5.1 1.5 7 0 1.9-0.6 4.7-1.4 6.2-0.8 1.7-3 3.5-5.5 4.5-3.6 1.6-8 1.8-39.6 1.8h-35.5v22c53.9 0 72.7-0.5 76.5-1 3.8-0.5 9.7-1.9 13-3.1 3.7-1.4 7.6-3.8 10.1-6.3 2.3-2.4 4.8-6.2 5.8-9.1 1-2.8 2-8.8 2.3-13.5 0.4-6.1 0.1-10.3-1.1-15-0.9-3.6-2.9-8.3-4.5-10.5-1.7-2.4-5-5.1-8.2-6.8-3.8-1.9-8-3-13.9-3.7-4.7-0.5-17.5-1-28.5-1-17 0-20.5-0.3-23.5-1.8-2-0.9-4.3-3.2-5.3-5.2-1.4-2.7-1.6-4.6-1-8.5 0.5-3.3 1.6-5.9 3.3-7.6 1.4-1.5 4.3-3.1 6.5-3.8 2.6-0.7 15.7-1.1 37.3-1.1h33.2l-0.3-21.9c-4.8 0.3-22.9 0.6-43.2 0.9z"/>
		<path id="Path 2" class="s2" d="m62.5 147c13.2 13.2 24.2 24 24.5 24 0.3 0-10.2-10.8-23.2-24-13.1-13.2-24.1-24-24.5-24-0.5 0 10 10.8 23.2 24z"/>
		<path id="Path 3" class="s0" d="m63.5 59.9l-4 4.1 63.5 63.5 22-22-8-8-13.9 14c-12.8-12.4-25.3-24.9-36.1-35.8l-19.5-19.9z"/>
		<path id="Path 4" fill-rule="evenodd" class="s1" d="m632.5 41.5c7.2 0.3 13.6 1.1 18.5 2.5 4.1 1.2 9.7 3.4 12.4 4.8 2.7 1.5 7.2 5.2 10 8.2 2.8 3 6.3 8 7.8 11 1.4 3 3.4 8.2 4.3 11.5 0.9 3.4 1.9 11.8 2.2 19.5 0.4 10.4 0.1 15.5-1.2 22.5-0.9 4.9-3 11.9-4.7 15.5-1.6 3.6-4.6 8.5-6.6 10.9-2 2.5-6.2 6.1-9.2 8.1-3 2-9.3 4.7-14 6-7.3 2.1-10.6 2.4-23.5 2.4-11.4 0-16.6-0.4-21.5-1.8-3.6-1-9-3-12-4.6-3-1.5-7.5-4.7-10-7.2-2.5-2.4-5.9-7.1-7.7-10.4-1.8-3.2-4.2-9.5-5.4-13.9-1.8-6.5-2.2-10.8-2.2-23-0.1-11.1 0.4-16.8 1.7-22 0.9-3.8 3.1-9.9 4.9-13.5 1.8-3.5 5.4-8.7 8.2-11.6 2.8-2.8 7.8-6.5 11.3-8.2 3.4-1.8 9-3.8 12.4-4.6 3.5-0.8 7.9-1.7 9.8-1.9 1.9-0.3 8.5-0.4 14.5-0.2zm-25.3 28.3c-3.2 3.1-5.6 6.6-7 10.4-1.2 3.2-2.7 9.7-3.2 14.5-0.7 6-0.7 11.3 0 16.8 0.5 4.4 1.7 10.2 2.6 13 0.8 2.7 3.1 7.1 5 9.7 2.4 3.4 5.1 5.6 9.1 7.5 5 2.4 7 2.8 14.8 2.8 7.2-0.1 10-0.5 14-2.3 2.7-1.3 6.3-3.5 7.8-5 1.6-1.5 3.8-4.5 4.9-6.7 1.2-2.2 2.7-6.3 3.4-9 0.8-2.8 1.7-8.4 2-12.5 0.4-4.4 0.2-11-0.6-16-0.6-4.7-2-10.5-2.9-13-0.9-2.5-3-6.2-4.6-8.3-1.8-2.3-5.3-5-8.5-6.5-4.4-2.1-7.2-2.7-14-2.9-5.4-0.2-10.2 0.3-13.3 1.2-3 1-6.4 3.2-9.5 6.3zm-218.4-26.6c0.9-0.1 1.2 2.5 1.2 20.8l-24.2 0.3c-17.5 0.3-25.4 0.8-28.3 1.8-2.2 0.7-5.8 3.2-8.1 5.4-2.5 2.5-4.6 5.9-5.6 9-0.9 2.8-1.9 6.5-2.8 11.5h69v21h-69l0.6 5.8c0.3 3.1 1.6 8.1 3 11 1.3 2.8 3.9 6.3 5.7 7.6 1.7 1.3 5 2.9 7.2 3.5 2.4 0.6 13.8 1.1 52.5 1.1v21.5l-28.2-0.6c-21.6-0.5-29.7-1.1-34.3-2.3-3.3-0.9-8.4-3.1-11.4-4.9-2.9-1.8-7.4-5.4-9.9-8.2-2.5-2.8-5.5-7.3-6.8-10-1.3-2.8-3-7.7-3.9-11-0.9-3.3-1.9-11.6-2.2-18.5-0.4-10.2-0.1-14.3 1.6-22.5 1.1-5.5 3.4-12.7 4.9-16 1.5-3.3 4.8-8.2 7.2-10.9 2.5-2.6 6.5-6 9-7.4 2.5-1.5 7.2-3.5 10.5-4.6 5.2-1.7 9.8-2.1 33.5-2.6 15.1-0.3 28.1-0.7 28.8-0.8zm141.7 0.3c1.9 0 2 0.8 2.5 20.5l-25.2 0.3c-23.1 0.3-25.8 0.5-30.8 2.5-3 1.2-6.7 3.4-8.2 4.9-1.5 1.5-3.6 4.8-4.6 7.3-1.1 2.5-2.3 6.6-3.2 14l71.5 0.5 0.5 20.5h-72v49h-25l0.4-37.8c0.3-31.3 0.6-39 2.1-45.2 0.9-4.1 2.5-9.8 3.5-12.5 1.1-2.7 3.8-7.2 6.2-9.9 2.4-2.7 6.4-5.9 9.1-7.2 2.6-1.3 7.3-3.1 10.5-4.1 4.4-1.3 11.9-1.8 33.2-2.2 15.1-0.3 28.4-0.6 29.5-0.6zm202.2-0.2l35.9 0.2c23.9 0.1 37.9 0.6 41.9 1.4 3.3 0.7 7.8 2.3 10 3.6 2.2 1.3 5.2 3.6 6.7 5.2 1.5 1.5 3.9 5.5 5.5 8.8 2.4 5.3 2.7 7.2 2.8 16 0 6.9-0.5 11.5-1.7 15-1 2.8-3.7 7.2-6 9.9-2.8 3.2-6.3 5.9-15.6 10.1l14.4 24c7.9 13.2 14.3 24.3 14.4 24.8 0 0.4-6.1 0.7-27 0.7l-1.8-2.8c-1-1.5-7-12-24.7-44.1l-29.5-0.1-0.5 46.5-24.5 0.5zm25.3 51.7c37.8-0.5 42.1-0.8 45.2-2.2 2.1-1 4.5-3 5.5-4.5 1-1.6 1.7-4.8 1.7-7.8 0-2.7-0.7-6.4-1.5-8.3-0.9-2-2.8-3.9-4.9-4.9-2.9-1.4-7.5-1.8-24.7-2.1l-21.1-0.4zm282.6-51.6l0.4 119.6h-26l-0.2-59.3c-0.1-32.6 0.1-59.5 0.5-59.8 0.3-0.2 6.1-0.5 25.3-0.5zm-168.6 0.6h103v20h-38l-0.5 98.5-25.5 0.5-0.5-98.5-38.5-0.5z"/>
		<path id="Path 5" fill-rule="evenodd" class="s2" d="m153.9 4c0.9 0.1 21.9 20.6 92 91.5l-95.9 96-75.5-75.5 14.5-14.5 3.5 3.5c1.9 1.9 3.5 3.9 3.5 4.5 0 0.6-1.3 2.3-5.5 6.6l59.5 59.4 79.9-80-83.9-84.5 3.2-3.5c1.7-1.9 3.9-3.5 4.7-3.5zm-31.4 64.1c0.5 0 15.2 14.1 64 62.9l-8 8-55.5-55.5-6.7 6.7c-3.8 3.7-7.3 6.8-7.8 6.8-0.5 0-2.6-1.5-8-7l10.5-10.9c5.8-5.9 11-10.9 11.5-11z"/>
	</g>
</svg>